<svg id="Layer_1" data-name="Layer 1" xmlns="http://www.w3.org/2000/svg" xmlns:xlink="http://www.w3.org/1999/xlink" viewBox="0 0 900 350"><defs><style>.cls-1{fill:none;}.cls-2{clip-path:url(#clip-path);}.cls-3{fill:green;}.cls-4{fill:#00416d;}</style><clipPath id="clip-path"><rect class="cls-1" width="900" height="350"/></clipPath></defs><g class="cls-2"><path class="cls-3" d="M174.34,122.48v64.14a32.74,32.74,0,0,0,28-.18v-55S188,127,174.34,122.48Z"/><path class="cls-3" d="M175.29,191.36v34.81S187,230.53,202,226V192.11S186.27,195.14,175.29,191.36Z"/><path class="cls-3" d="M167.53,181.9v-33s-7.88-2.16-18.73-4.32v37.3Z"/><path class="cls-3" d="M149.43,184.17V223a30.26,30.26,0,0,0,17.84-.12V184.17Z"/><path class="cls-3" d="M229,181.18c2.31-34.54,2.46-33.52,2.46-33.52s-9.69-3.29-21.2-6.62l-2.51,38.77Z"/><path class="cls-3" d="M208.31,182.21l-2.61,40.38A37.33,37.33,0,0,0,226,223.76l2.6-40.24Z"/><path class="cls-4" d="M59,192.87a117.34,117.34,0,0,1,230.66-30.46A130.29,130.29,0,1,0,140.25,304.54,117.37,117.37,0,0,1,59,192.87Z"/><path class="cls-3" d="M193.83,281A99,99,0,0,1,175.65,84.74a107.72,107.72,0,1,0,96.42,157.84A98.79,98.79,0,0,1,193.83,281Z"/><path class="cls-4" d="M233.77,104.83a79.33,79.33,0,1,1-124.7,65.07c0-1.66.06-3.3.16-4.93a87.28,87.28,0,1,0,124.54-60.14Z"/><path class="cls-3" d="M354,77.94l33.09,71h-6.48l-7.57-16.1H325L317.46,149H311l33.09-71ZM327.62,127.2h42.86L350.15,83.62H348Z"/><path class="cls-3" d="M393.2,107.3v-5.68H431v5.68l-30.2,36h32.29V149H393.2V143.3l30.09-36Z"/><path class="cls-3" d="M483.79,101.62h6V125.3c0,13.08-11.16,23.68-24.91,23.68s-24.91-10.6-24.91-23.68V101.62h6V125.3c0,10,8.47,18,18.93,18s18.94-8.05,18.94-18Z"/><path class="cls-3" d="M507.8,112.61a17.18,17.18,0,0,0,0,25.39,19.41,19.41,0,0,0,26.71,0l4.28,4.07a26,26,0,0,1-35.27,0,23,23,0,0,1,0-33.53,26,26,0,0,1,35.27,0l-4.28,4.07A19.39,19.39,0,0,0,507.8,112.61Z"/><path class="cls-3" d="M585.73,140.74A25.58,25.58,0,0,1,566.8,149c-13.75,0-24.92-10.6-24.92-23.68s11.17-23.68,24.92-23.68,24.91,10.61,24.91,23.68V149h-6ZM566.8,143.3c10.16,0,18.93-7.58,18.93-18,0-9.94-8.47-18-18.93-18s-18.94,8.06-18.94,18S556.33,143.3,566.8,143.3Z"/><path class="cls-3" d="M600.78,101.62h6V110a25.31,25.31,0,0,1,18.94-8.34v5.68c-10.27,0-18.94,8.44-18.94,18V149h-6Z"/><path class="cls-3" d="M652.6,143.3A19.45,19.45,0,0,0,666,138.09l4.28,3.88a25.23,25.23,0,0,1-17.64,7c-13.75,0-24.91-10.6-24.91-23.68s11.16-23.68,24.91-23.68,24.92,10.61,24.92,23.68v2.84H633.87C635.36,136.76,643.13,143.3,652.6,143.3Zm-18.73-20.84h37.37c-1.4-8.62-9.17-15.16-18.64-15.16S635.36,113.84,633.87,122.46Z"/><path class="cls-3" d="M684.79,101.62h6V110a25.3,25.3,0,0,1,18.93-8.34v5.68c-10.26,0-18.93,8.44-18.93,18V149h-6Z"/><path class="cls-3" d="M757.54,140.74A25.61,25.61,0,0,1,738.6,149c-13.75,0-24.91-10.6-24.91-23.68s11.16-23.68,24.91-23.68,24.92,10.61,24.92,23.68V149h-6ZM738.6,143.3c10.17,0,18.94-7.58,18.94-18,0-9.94-8.47-18-18.94-18s-18.93,8.06-18.93,18S728.14,143.3,738.6,143.3Z"/><path class="cls-4" d="M311.1,169.83h13.67v67.22q0,9.84,5.32,15.14t15.18,5.31H364v12.28H347.65q-18.42,0-27.49-8.65t-9.06-26.25Z"/><path class="cls-4" d="M429.24,269.78V235.65q0-10.74-6.26-17.41t-16.26-6.67q-9.93,0-16.3,6.6t-6.36,17q0,10.62,6.54,17.38t16.7,6.77a26.87,26.87,0,0,0,9-1.53A34.44,34.44,0,0,0,425,253v13.19a36.54,36.54,0,0,1-9.1,3.53,42.74,42.74,0,0,1-10,1.15,34.39,34.39,0,0,1-10-1.5,33.23,33.23,0,0,1-9-4.22,34.77,34.77,0,0,1-11.66-12.74,36,36,0,0,1-4-17q0-15.34,10-25.37t25.4-10A35.94,35.94,0,0,1,425.14,205a33.6,33.6,0,0,1,12.95,13.61,30.41,30.41,0,0,1,3,8.55A78.78,78.78,0,0,1,442,241v28.75Z"/><path class="cls-4" d="M531.51,212.76h49.43v3.42a70.84,70.84,0,0,1-1.51,15.15,53.66,53.66,0,0,1-4.53,12.84,50.29,50.29,0,0,1-19,20.13,52.48,52.48,0,0,1-63.86-8,51.07,51.07,0,0,1-11.52-16.78,51.55,51.55,0,0,1,0-39.58,51.07,51.07,0,0,1,11.52-16.78A50.3,50.3,0,0,1,509.27,172a57.27,57.27,0,0,1,21.09-3.84,53,53,0,0,1,21.58,4.4,65.37,65.37,0,0,1,19.36,13.61l-9.14,9a55.53,55.53,0,0,0-15.58-11.24,39.32,39.32,0,0,0-16.66-3.63,42.6,42.6,0,0,0-11,1.4,34.36,34.36,0,0,0-9.61,4.19,38.79,38.79,0,0,0-13.81,14.34,40.69,40.69,0,0,0-2,34.45,40.39,40.39,0,0,0,8.45,12.84,37.59,37.59,0,0,0,12.35,8.41,37.12,37.12,0,0,0,14.64,3q14.82,0,25.07-9.14t12.34-24.43H531.51Z"/><path class="cls-4" d="M592.41,269.78V201.31h11.66v10.12a19.51,19.51,0,0,1,8.92-8.69q5.68-2.69,15.33-2.68h3.3v11.86h-1.94q-13,0-18.81,6t-5.8,19.55v32.31Z"/><path class="cls-4" d="M706.22,239.49q-2.67,14.65-12.23,23.17t-23.32,8.52a35.75,35.75,0,0,1-9.24-1.22,34.12,34.12,0,0,1-8.6-3.6,36.1,36.1,0,0,1-13.17-13.12,35.81,35.81,0,0,1-2-31.34,36.37,36.37,0,0,1,7.81-11.58,35,35,0,0,1,11.62-7.75,36,36,0,0,1,13.71-2.65A34.41,34.41,0,0,1,690,205.4a39.56,39.56,0,0,1,13.71,15.94l-46.27,24.85-5.32-9.28,34.32-18.57a21.74,21.74,0,0,0-31.77,0,25.33,25.33,0,0,0,0,33.95,22.26,22.26,0,0,0,31,1.16q6.07-5.76,7.59-15.81Z"/><path class="cls-4" d="M763.37,213H757.9q-13.32,0-21.23,6.18a20.92,20.92,0,0,0,0,32.8q7.95,6.18,21.19,6.18h5.47v11.58H757q-18.93,0-30.19-9.38t-11.26-25a31.66,31.66,0,0,1,4-15.63,35.14,35.14,0,0,1,11.44-12.22,36.66,36.66,0,0,1,11-4.81,62.78,62.78,0,0,1,15-1.47h6.33Z"/><path class="cls-4" d="M773.33,181.84a7,7,0,0,1,2.23-5.23,8,8,0,0,1,10.9,0,7.07,7.07,0,0,1,2.2,5.27,7.51,7.51,0,0,1-7.63,7.61,7.46,7.46,0,0,1-5.43-2.24A7.23,7.23,0,0,1,773.33,181.84Zm1.37,87.94V201.31h12.66v68.47Z"/><path class="cls-4" d="M856,269.78V235.65q0-10.74-6.26-17.41t-16.26-6.67q-9.93,0-16.3,6.6t-6.36,17q0,10.62,6.54,17.38t16.7,6.77a26.87,26.87,0,0,0,9-1.53,34.44,34.44,0,0,0,8.74-4.75v13.19a36.39,36.39,0,0,1-9.1,3.53,42.68,42.68,0,0,1-10,1.15,34.39,34.39,0,0,1-10-1.5,33.23,33.23,0,0,1-9-4.22A34.66,34.66,0,0,1,802,252.44a35.85,35.85,0,0,1-4-17q0-15.34,10-25.37t25.4-10A35.94,35.94,0,0,1,851.91,205a33.54,33.54,0,0,1,13,13.61,30.41,30.41,0,0,1,3,8.55,78.78,78.78,0,0,1,.9,13.86v28.75Z"/></g></svg>